<?xml version="1.0" standalone="no"?>
<!DOCTYPE svg PUBLIC "-//W3C//DTD SVG 20010904//EN"
 "http://www.w3.org/TR/2001/REC-SVG-20010904/DTD/svg10.dtd">
<svg version="1.0" xmlns="http://www.w3.org/2000/svg"
 width="1387.000000pt" height="1387.000000pt" viewBox="0 0 1387.000000 1387.000000"
 preserveAspectRatio="xMidYMid meet">
<metadata>
Created by potrace 1.14, written by Peter Selinger 2001-2017
</metadata>
<g transform="translate(0.000000,1387.000000) scale(0.100000,-0.100000)"
fill="#000000" stroke="none">
<path d="M6660 13660 c-199 -7 -315 -19 -601 -61 -196 -28 -356 -77 -539 -165
-85 -40 -124 -56 -260 -102 -169 -58 -287 -88 -385 -97 -148 -13 -436 -80
-610 -141 -106 -37 -290 -138 -390 -213 -151 -113 -359 -309 -491 -461 -22
-24 -49 -56 -62 -70 -116 -125 -302 -457 -338 -602 -8 -35 -33 -119 -54 -188
-22 -69 -44 -159 -49 -200 -6 -41 -20 -120 -31 -175 -12 -55 -25 -166 -31
-246 -5 -81 -15 -164 -23 -187 -19 -52 -93 -192 -150 -280 -56 -88 -78 -131
-134 -262 -65 -153 -121 -323 -138 -420 -8 -47 -26 -125 -39 -175 -27 -104
-43 -203 -85 -520 -23 -182 -32 -296 -40 -545 -5 -173 -15 -476 -21 -673 -9
-282 -9 -397 1 -540 8 -113 10 -240 6 -339 -5 -111 -4 -170 4 -194 11 -33 14
-35 53 -32 l42 3 -2 -125 c-1 -78 -7 -148 -17 -185 -9 -33 -21 -141 -26 -240
-6 -99 -17 -209 -26 -244 -24 -103 -29 -340 -10 -546 9 -99 21 -250 26 -335 6
-85 19 -215 30 -290 10 -74 24 -191 30 -260 6 -69 17 -152 25 -185 22 -88 19
-120 -10 -148 -21 -19 -24 -28 -17 -48 6 -13 24 -34 41 -47 35 -25 81 -111
101 -187 18 -69 116 -366 146 -445 14 -36 66 -147 115 -246 49 -100 89 -184
89 -187 0 -3 23 -43 51 -89 28 -46 89 -144 134 -218 80 -132 175 -273 332
-495 43 -60 88 -127 100 -147 26 -45 175 -231 271 -338 164 -183 470 -457 637
-570 28 -18 68 -48 90 -66 123 -98 347 -231 585 -348 251 -122 315 -151 430
-190 58 -21 125 -46 150 -56 194 -82 430 -158 635 -204 88 -20 178 -41 200
-46 83 -21 318 -41 545 -46 195 -5 269 -3 435 14 110 12 229 30 265 41 36 10
95 24 132 30 62 11 385 115 542 176 198 75 459 219 756 414 158 104 248 173
435 331 278 236 409 369 607 620 132 167 171 219 258 350 25 37 68 100 95 140
28 40 59 89 71 109 11 21 30 51 41 67 11 16 31 49 43 74 13 25 42 74 65 110
23 36 59 92 79 125 39 61 109 115 168 129 15 3 33 12 40 20 8 7 27 20 43 29
72 37 91 158 71 442 -5 68 -3 101 8 133 8 23 20 70 26 105 6 34 20 80 30 102
10 22 21 62 25 89 9 69 31 103 116 188 41 40 93 100 117 133 23 33 75 105 114
160 65 91 160 266 277 514 12 23 30 54 41 68 11 14 20 38 20 53 0 15 4 40 10
56 11 34 39 246 50 384 4 52 15 149 24 215 19 142 20 357 1 475 -19 124 -63
287 -96 352 -47 93 -43 138 41 428 17 58 48 172 70 253 22 82 42 152 45 156 2
5 9 41 16 82 6 41 21 112 34 159 13 47 28 117 34 155 5 39 18 113 28 165 16
83 18 148 17 510 l0 415 -41 155 c-36 137 -75 245 -168 470 -35 84 -41 170
-21 292 9 54 16 140 16 191 0 93 -15 154 -64 269 -26 60 -20 148 20 303 48
186 55 316 25 464 -32 152 -82 244 -290 531 -46 63 -90 130 -97 147 -22 51
-138 217 -241 345 -149 185 -422 442 -618 582 -44 31 -106 76 -137 99 -202
150 -527 325 -848 456 -25 11 -76 33 -115 50 -202 88 -626 230 -855 286 -58
14 -139 35 -180 45 -95 25 -263 65 -360 85 -70 15 -331 42 -620 65 -178 14
-649 20 -890 10z m-630 -2701 c188 -28 335 -54 425 -75 55 -12 156 -35 225
-49 132 -28 195 -42 350 -80 389 -94 655 -146 925 -180 61 -8 137 -19 170 -25
58 -10 274 -36 540 -66 72 -8 238 -23 370 -34 132 -11 285 -27 340 -35 260
-40 303 -47 345 -60 25 -8 72 -19 105 -25 67 -12 337 -94 375 -114 14 -8 63
-30 110 -49 114 -48 293 -148 365 -205 150 -118 264 -237 350 -366 33 -51 95
-154 95 -159 0 -2 16 -40 37 -83 32 -70 55 -127 91 -229 6 -16 22 -70 37 -120
14 -49 35 -117 45 -150 11 -33 22 -87 26 -120 3 -33 13 -80 21 -105 8 -25 19
-99 24 -165 5 -66 16 -167 24 -225 12 -82 15 -193 14 -515 0 -225 -4 -439 -8
-475 l-7 -65 -8 103 c-5 56 -12 105 -17 107 -17 11 -29 -37 -29 -120 0 -101
-9 -110 -74 -77 -64 33 -165 77 -231 102 -33 13 -96 38 -140 56 -44 18 -100
38 -125 44 -32 8 -67 30 -115 71 -39 33 -86 71 -105 84 -19 14 -71 52 -115 86
-114 87 -357 202 -565 267 -78 24 -294 47 -445 47 -118 0 -378 -28 -460 -49
-27 -7 -71 -18 -97 -24 -26 -7 -72 -28 -103 -48 l-56 -35 -107 11 c-59 6 -143
18 -187 25 -44 8 -136 22 -205 30 -69 9 -165 25 -215 35 -49 11 -135 22 -190
25 -55 3 -131 14 -170 24 -39 11 -126 22 -195 26 -80 5 -140 13 -170 25 -29
11 -87 19 -165 23 -72 4 -150 15 -195 27 -41 11 -122 24 -180 29 -58 5 -114
13 -125 17 -11 4 -51 40 -90 79 -49 50 -85 77 -120 90 -28 11 -77 34 -110 53
-76 43 -199 93 -373 153 -76 25 -236 60 -417 89 -104 17 -297 13 -505 -11
-158 -18 -217 -30 -400 -81 -146 -41 -248 -76 -316 -109 -56 -27 -107 -49
-113 -49 -7 0 -32 -9 -55 -20 -24 -11 -74 -24 -112 -29 -193 -27 -411 -117
-644 -266 -96 -61 -233 -192 -305 -291 -85 -118 -97 -137 -127 -204 -16 -36
-35 -76 -43 -90 -32 -59 -67 -170 -76 -244 -5 -43 -17 -89 -25 -102 -11 -16
-20 -76 -29 -206 -7 -101 -19 -198 -26 -217 -14 -40 -6 -433 11 -516 6 -27 15
-87 20 -132 5 -45 16 -95 24 -111 8 -16 20 -65 25 -110 6 -44 19 -98 31 -119
11 -21 20 -41 20 -46 0 -4 17 -44 39 -90 21 -45 44 -100 51 -122 7 -22 21 -52
31 -67 11 -14 19 -29 19 -33 0 -3 11 -21 25 -39 14 -18 25 -37 25 -43 0 -5 9
-18 20 -28 11 -10 20 -22 20 -28 0 -14 72 -127 80 -127 5 0 12 -12 18 -27 14
-40 100 -123 127 -123 8 0 25 -10 38 -22 14 -13 41 -34 62 -48 20 -14 45 -32
55 -41 33 -31 115 -67 210 -95 52 -15 107 -33 121 -40 14 -7 57 -21 95 -30 38
-9 75 -21 81 -27 7 -5 41 -11 75 -13 35 -2 133 -8 218 -14 108 -7 226 -7 390
1 316 15 309 14 362 32 26 9 77 19 115 23 37 4 115 22 173 41 58 18 113 33
122 33 9 0 27 4 40 9 13 5 59 21 103 35 106 33 204 74 234 97 13 11 38 19 56
19 18 0 38 7 45 15 7 9 32 20 56 26 24 6 44 15 44 20 0 5 18 18 40 29 22 11
40 24 40 28 0 5 16 16 35 25 19 9 35 21 35 26 0 5 17 16 38 24 21 8 44 22 51
31 8 9 22 16 33 16 10 0 21 7 24 15 4 8 13 15 20 15 8 0 18 10 23 23 5 12 19
30 30 39 12 10 21 25 21 33 0 9 9 15 21 15 12 0 23 8 26 20 6 22 33 26 51 8
17 -17 26 -3 13 20 -15 28 -14 42 4 42 9 0 20 11 24 24 5 13 17 26 25 29 9 4
21 18 28 32 6 14 17 25 25 25 7 0 13 7 13 15 0 8 14 30 30 48 17 19 30 42 30
51 0 9 7 16 15 16 9 0 20 12 26 27 6 15 19 36 30 46 10 10 19 28 19 41 0 12
11 32 25 44 14 12 25 31 25 42 0 11 11 30 24 41 15 13 27 38 31 61 4 22 13 42
20 44 7 3 16 22 20 42 4 20 15 53 26 74 10 20 19 48 19 60 0 13 11 43 23 68
13 25 32 70 42 100 9 30 28 87 41 125 12 39 28 96 34 128 7 32 20 77 30 100
10 23 23 69 30 102 7 33 18 67 25 75 8 9 15 56 18 120 6 141 27 187 102 230
48 28 66 32 158 37 113 6 228 -9 248 -33 6 -8 17 -14 23 -14 22 0 107 -67 126
-98 30 -50 38 -110 22 -167 -19 -66 -13 -942 7 -990 7 -16 17 -70 23 -120 9
-83 46 -253 82 -370 41 -138 114 -317 135 -329 6 -4 11 -16 11 -26 0 -10 10
-31 23 -47 12 -15 28 -39 35 -53 14 -30 29 -53 59 -97 13 -17 23 -36 23 -42 0
-5 11 -18 25 -29 14 -11 25 -24 25 -30 0 -5 22 -34 50 -63 27 -30 50 -57 50
-61 1 -19 147 -148 168 -148 5 0 14 -11 20 -25 6 -14 17 -25 23 -25 13 0 32
-16 77 -63 15 -15 32 -27 39 -27 7 0 13 -4 13 -9 0 -5 33 -27 73 -49 40 -22
79 -47 86 -56 7 -8 24 -18 39 -21 15 -4 47 -22 72 -40 44 -33 198 -115 216
-115 5 0 27 -9 49 -19 142 -68 204 -95 244 -107 168 -48 226 -67 245 -79 13
-9 56 -19 97 -24 41 -6 92 -18 114 -27 34 -14 93 -18 400 -23 312 -5 360 -8
358 -21 -9 -63 -55 -190 -80 -222 -5 -7 -13 -21 -16 -30 -5 -13 -17 -18 -44
-18 -21 -1 -49 -7 -62 -14 -21 -12 -30 -12 -57 1 -20 10 -42 13 -59 9 l-28 -7
26 -27 c14 -15 27 -38 29 -52 2 -17 14 -31 38 -42 19 -10 37 -26 41 -35 8 -25
-12 -83 -33 -94 -10 -5 -18 -14 -18 -20 0 -10 -95 -105 -147 -147 -41 -32
-136 -92 -147 -92 -5 0 -17 -7 -26 -15 -9 -8 -50 -24 -91 -35 -41 -11 -90 -25
-109 -30 -86 -23 -285 7 -396 60 -22 11 -47 20 -55 20 -36 0 -228 144 -353
265 -28 28 -72 65 -96 83 -105 78 -185 132 -195 132 -6 0 -26 9 -46 19 -19 11
-98 42 -175 71 -76 28 -156 58 -176 66 -21 7 -70 21 -109 30 -40 9 -86 22
-103 29 -17 7 -69 19 -116 25 -47 7 -107 21 -133 31 -26 11 -64 19 -84 19 -88
0 -218 23 -240 43 -28 25 -18 39 37 56 59 17 165 127 201 208 29 66 49 156 49
228 0 36 -30 161 -50 210 -7 17 -9 16 -9 -10 -2 -45 -29 -153 -52 -210 -58
-138 -139 -211 -289 -261 -335 -114 -843 16 -1004 256 -52 77 -83 107 -96 94
-5 -5 -10 -36 -11 -69 -5 -117 74 -289 141 -310 24 -8 31 -30 17 -48 -11 -13
-28 -13 -142 0 -426 47 -690 60 -946 45 -339 -20 -445 -39 -610 -113 -36 -16
-69 -29 -74 -29 -5 0 -16 -6 -24 -14 -37 -32 -224 -119 -321 -149 -102 -31
-110 -32 -295 -32 -182 0 -194 1 -280 29 -122 39 -203 78 -315 154 -206 140
-344 285 -507 531 -42 64 -83 127 -92 141 -27 40 -171 337 -171 352 0 7 -7 27
-16 43 -17 33 -45 108 -73 200 -11 33 -26 80 -34 105 -37 110 -49 156 -62 239
-8 48 -21 103 -29 123 -9 20 -18 80 -22 135 -4 59 -15 122 -28 158 -20 58 -21
75 -21 630 l0 570 23 47 c13 26 27 71 31 100 4 29 15 67 24 85 9 18 17 39 17
47 0 36 127 414 175 521 7 17 17 44 21 60 4 17 13 39 20 50 7 11 18 40 24 65
7 24 20 55 31 68 10 14 19 34 19 46 0 12 7 31 15 43 9 12 22 41 31 65 8 23 21
49 28 58 8 8 17 26 20 40 4 14 18 48 31 75 60 128 102 239 154 405 23 74 56
177 72 228 16 51 29 99 29 105 0 16 47 168 76 245 13 34 24 68 24 74 0 14 43
128 70 183 10 22 33 72 51 110 38 83 123 235 158 286 15 20 46 65 70 100 103
150 334 390 476 494 143 106 334 205 487 253 224 72 475 116 713 126 126 5
463 -4 535 -15z m-1140 -2939 c189 -21 286 -30 436 -39 88 -6 173 -15 188 -21
15 -5 84 -17 153 -25 69 -9 140 -23 156 -32 17 -9 61 -18 97 -21 36 -2 82 -13
102 -23 21 -11 61 -24 90 -30 48 -9 169 -53 193 -70 6 -3 28 -12 50 -19 22 -7
52 -21 67 -31 14 -11 31 -19 36 -19 15 0 92 -76 85 -84 -10 -10 -31 -7 -45 7
-7 7 -50 21 -96 30 -69 15 -91 16 -141 6 -45 -8 -68 -8 -92 0 -55 19 -293 6
-354 -19 -11 -5 -42 -11 -68 -14 -44 -5 -48 -4 -57 20 -9 23 -15 25 -43 20
-46 -8 -302 -10 -314 -3 -6 4 -21 -2 -34 -12 -18 -13 -50 -20 -124 -25 -78 -5
-104 -11 -119 -26 -10 -10 -16 -25 -13 -33 9 -24 77 -52 122 -51 22 1 130 5
241 9 159 6 209 5 240 -6 23 -8 84 -14 149 -14 83 -1 120 -5 150 -19 36 -16
94 -25 280 -42 36 -4 69 -13 84 -25 13 -10 39 -19 58 -19 18 0 50 -7 70 -15
19 -8 45 -15 56 -15 12 0 33 -12 49 -27 26 -25 29 -25 46 -10 26 24 41 21 52
-9 14 -36 33 -25 48 29 7 26 17 47 21 47 10 0 21 -35 21 -69 0 -13 11 -36 25
-53 14 -16 25 -42 25 -56 0 -15 5 -44 10 -64 17 -59 27 -294 18 -393 -22 -250
-103 -517 -234 -780 -75 -149 -127 -240 -164 -286 -20 -24 -53 -70 -75 -103
-48 -70 -208 -224 -315 -304 -115 -84 -188 -129 -341 -207 -169 -87 -230 -114
-294 -130 -28 -7 -66 -20 -85 -30 -19 -10 -59 -24 -90 -31 -30 -7 -89 -22
-130 -33 -41 -11 -97 -21 -125 -21 -27 0 -75 -9 -105 -20 -47 -17 -83 -19
-255 -19 -140 -1 -220 4 -265 14 -36 8 -108 20 -160 26 -54 6 -120 21 -152 35
-32 13 -63 24 -70 24 -7 0 -30 9 -51 20 -20 11 -43 20 -51 20 -30 0 -152 74
-230 140 -123 104 -151 131 -178 175 -13 22 -48 74 -76 116 -58 86 -119 209
-128 260 -4 19 -15 44 -25 57 -10 13 -21 37 -25 55 -3 18 -15 48 -25 69 -11
22 -22 76 -28 136 -6 62 -16 112 -28 133 -16 31 -18 60 -17 284 0 225 2 258
22 332 12 45 22 112 22 149 0 44 8 89 25 137 13 40 29 103 34 140 5 38 14 74
19 80 5 7 35 70 66 141 32 72 67 142 79 157 12 14 31 39 42 55 11 16 60 68
110 116 68 66 118 102 207 152 64 36 120 66 125 66 4 0 31 12 58 25 28 14 56
25 63 25 7 0 26 7 42 15 16 8 73 20 126 25 53 6 124 17 158 26 33 9 95 20 136
24 105 10 381 11 470 0z m2203 -280 c40 -6 106 -17 147 -25 41 -8 127 -19 190
-25 63 -7 138 -18 165 -26 28 -7 105 -18 173 -24 67 -5 138 -17 158 -25 20 -8
95 -20 168 -25 72 -6 147 -15 166 -20 104 -27 131 -36 132 -45 1 -6 -18 -21
-42 -34 -23 -13 -50 -37 -59 -52 -9 -16 -19 -29 -22 -29 -27 0 -119 -102 -133
-148 -4 -11 -13 -23 -20 -25 -18 -7 -87 37 -148 94 -64 60 -71 66 -99 74 -13
4 -40 17 -59 30 -23 15 -58 25 -103 30 -37 4 -81 10 -97 15 -15 4 -48 4 -71 0
-24 -4 -75 -13 -114 -20 -38 -6 -83 -20 -100 -29 -16 -10 -43 -22 -60 -25 -16
-4 -38 -14 -47 -23 -11 -10 -26 -13 -42 -9 -24 6 -36 34 -60 137 -3 14 -21 41
-40 60 -19 18 -38 45 -41 59 -4 14 -20 39 -37 57 -33 35 -32 63 2 63 12 0 54
-5 93 -10z m2449 -381 c84 -11 185 -24 223 -29 39 -5 115 -18 170 -29 55 -12
146 -30 201 -40 56 -11 111 -24 123 -30 11 -6 51 -15 89 -20 61 -8 119 -28
221 -79 19 -9 55 -37 79 -62 102 -101 203 -138 247 -90 23 25 58 26 93 1 15
-10 50 -32 77 -49 28 -17 55 -36 60 -42 6 -7 40 -42 76 -79 37 -37 78 -85 91
-107 14 -21 42 -55 62 -74 40 -40 48 -79 16 -87 -16 -4 -20 -14 -20 -44 0 -33
-4 -41 -25 -49 -29 -11 -32 -35 -9 -61 15 -17 15 -19 0 -34 -13 -13 -16 -40
-16 -142 l0 -125 -33 -41 c-45 -56 -49 -69 -26 -103 17 -26 19 -48 19 -191 0
-90 -4 -163 -8 -163 -16 0 -30 -44 -21 -67 6 -16 17 -23 35 -23 25 0 26 -2 19
-37 -3 -21 -9 -64 -12 -96 -2 -32 -11 -70 -18 -84 -8 -15 -12 -30 -9 -35 13
-20 3 -288 -11 -329 -23 -64 -18 -289 6 -289 5 0 9 7 9 15 0 8 13 26 29 41 17
15 32 40 36 62 3 20 13 47 21 59 8 13 20 84 29 165 8 79 20 168 25 198 5 30
17 100 25 155 20 125 54 202 93 207 20 2 29 11 36 36 5 20 20 39 36 47 27 14
40 47 40 102 0 14 4 21 10 18 13 -8 13 -91 -1 -117 -6 -11 -15 -79 -20 -151
-5 -73 -16 -154 -24 -182 -8 -27 -24 -84 -35 -125 -12 -41 -27 -96 -34 -121
-16 -56 -111 -273 -136 -309 -9 -14 -30 -45 -46 -70 -16 -25 -35 -49 -41 -53
-7 -4 -20 -22 -30 -40 -9 -18 -22 -37 -30 -42 -14 -10 -19 -17 -58 -85 -30
-51 -223 -246 -275 -277 -25 -15 -92 -51 -150 -79 -93 -46 -117 -53 -209 -64
-139 -17 -278 -17 -441 -2 -128 12 -193 28 -345 82 -27 10 -63 21 -78 25 -46
10 -384 181 -422 214 -11 9 -40 30 -65 47 -77 50 -178 129 -247 194 -36 33
-86 77 -109 97 -24 19 -93 95 -153 169 -184 224 -297 456 -356 726 -32 147
-28 159 100 288 89 89 158 140 171 127 3 -3 -2 -39 -10 -81 -18 -85 -21 -268
-5 -336 20 -88 65 -187 129 -282 29 -43 88 -68 214 -93 43 -8 84 -19 90 -24
16 -14 260 -17 316 -5 25 6 63 20 85 31 64 33 148 71 175 79 14 3 32 12 40 19
8 7 29 16 46 19 27 6 38 2 68 -24 41 -36 47 -71 16 -97 -17 -15 -29 -63 -16
-63 34 0 167 131 218 215 20 33 49 96 64 140 25 71 28 98 32 231 4 142 2 155
-23 230 -14 43 -38 101 -52 127 -23 45 -24 50 -9 65 15 15 22 13 89 -21 39
-21 88 -50 108 -65 78 -58 221 -198 246 -242 55 -92 112 -215 129 -277 17 -62
18 -64 48 -61 21 2 35 11 43 28 17 34 16 132 -2 200 -17 66 -87 204 -135 268
-38 50 -145 144 -225 197 -113 76 -341 164 -475 184 -135 20 -324 33 -390 28
-163 -14 -321 -37 -347 -50 -16 -9 -51 -18 -78 -22 -27 -5 -72 -18 -100 -31
-27 -13 -58 -24 -68 -24 -14 0 -134 -61 -193 -98 -113 -70 -234 -186 -260
-249 -8 -18 -18 -33 -23 -33 -5 0 -15 -15 -21 -32 -12 -31 -14 -25 -29 97 -18
138 -18 325 -1 370 5 14 10 55 10 91 0 64 6 74 28 52 16 -16 34 3 56 62 10 25
28 56 40 70 13 14 33 41 46 60 13 19 29 38 36 42 6 4 17 21 24 37 8 20 21 32
41 36 16 4 29 10 29 14 0 31 160 131 210 131 31 0 111 21 155 40 33 15 60 17
157 13 132 -6 188 1 188 22 0 15 6 16 89 19 46 1 69 20 58 49 -9 25 -87 70
-136 79 -25 4 -54 17 -65 27 -12 10 -32 22 -46 26 -14 4 -50 19 -80 33 -30 14
-77 27 -105 30 -29 3 -54 11 -58 19 -6 10 -19 13 -45 9 -21 -3 -74 -8 -119
-10 -64 -4 -83 -2 -87 9 -14 37 162 90 354 108 120 11 332 5 472 -14z m-922
-173 c0 -9 -30 -14 -35 -6 -4 6 3 10 14 10 12 0 21 -2 21 -4z m-108 -111 c-12
-22 -27 -2 -18 22 5 12 10 13 17 6 7 -7 8 -17 1 -28z m-42 -34 c0 -17 -12 -41
-21 -41 -10 0 -12 33 -2 43 9 10 23 9 23 -2z m689 -863 c40 -41 55 -88 47
-151 -15 -130 -179 -183 -271 -87 -22 23 -29 41 -33 84 -6 73 2 101 39 134 35
32 87 50 145 51 34 1 47 -5 73 -31z m2387 -464 c-4 -14 -9 -24 -12 -21 -3 2
-2 17 2 31 3 15 9 25 11 22 3 -3 2 -17 -1 -32z m-5721 -2323 c121 -25 209 -31
432 -31 257 0 437 -11 566 -34 45 -8 138 -17 206 -21 69 -4 143 -13 165 -21
23 -8 86 -19 141 -25 55 -5 144 -21 197 -35 53 -13 110 -24 127 -24 17 0 63
-11 103 -24 40 -13 93 -27 118 -31 25 -4 92 -20 150 -35 58 -15 141 -33 185
-39 44 -7 118 -20 165 -31 47 -10 120 -24 163 -31 68 -11 80 -15 88 -36 11
-29 11 -35 2 -30 -5 2 -78 1 -163 -4 -400 -20 -755 -9 -955 32 -27 6 -135 13
-240 17 -104 4 -196 11 -203 16 -8 4 -28 10 -45 11 -108 11 -281 35 -314 44
-21 5 -74 12 -118 16 -170 14 -530 75 -715 121 -248 63 -306 80 -375 113 -78
37 -191 55 -183 30 3 -8 15 -19 29 -26 67 -33 121 -53 142 -53 13 0 33 -11 44
-24 12 -14 37 -26 63 -30 23 -4 55 -13 70 -21 28 -14 273 -81 420 -115 42 -9
86 -23 99 -30 13 -7 69 -18 125 -26 56 -7 115 -19 131 -27 17 -8 66 -18 110
-22 44 -4 116 -14 160 -22 44 -8 118 -19 165 -23 181 -18 266 -29 297 -39 18
-5 92 -14 165 -21 73 -6 147 -16 163 -21 45 -15 741 -23 850 -10 217 27 291
43 316 68 9 9 9 16 -1 28 -11 13 -8 15 20 15 48 0 97 -34 111 -78 6 -20 19
-45 28 -56 12 -14 17 -45 19 -136 3 -100 1 -125 -16 -162 -10 -24 -22 -62 -26
-83 -9 -46 -106 -240 -166 -333 -77 -118 -197 -223 -344 -300 -49 -26 -57 -27
-206 -27 -152 0 -156 1 -215 30 -80 40 -187 148 -253 257 -76 125 -135 178
-247 221 -123 48 -396 91 -645 102 -124 6 -159 4 -244 -14 -110 -22 -171 -58
-316 -183 -30 -26 -116 -73 -165 -91 -111 -41 -153 -49 -250 -50 -89 -1 -110
3 -195 33 -108 38 -123 47 -229 147 -79 75 -163 198 -183 270 -5 20 -16 46
-23 57 -8 12 -17 41 -20 66 -4 25 -16 74 -28 110 -19 56 -22 89 -22 240 0 170
1 177 29 250 44 113 126 187 194 177 23 -4 52 -1 77 9 32 12 76 14 230 10 105
-3 213 -10 240 -15z"/>
<path d="M11385 7481 c-3 -5 -1 -12 5 -16 5 -3 10 1 10 9 0 18 -6 21 -15 7z"/>
<path d="M6711 5444 c0 -11 3 -14 6 -6 3 7 2 16 -1 19 -3 4 -6 -2 -5 -13z"/>
<path d="M6426 5139 c-22 -21 -47 -41 -55 -44 -9 -3 -24 -18 -33 -35 -10 -17
-25 -30 -36 -30 -10 0 -24 -11 -29 -23 -11 -23 -99 -77 -126 -77 -8 0 -19 -11
-25 -25 -6 -14 -18 -25 -25 -25 -7 0 -28 -15 -46 -34 -32 -33 -33 -34 -13 -45
32 -17 48 -13 75 19 14 17 32 30 40 30 8 0 31 14 52 30 21 17 47 30 57 30 21
0 281 254 271 264 -4 3 -20 6 -37 5 -22 0 -42 -12 -70 -40z"/>
<path d="M5930 4770 c0 -5 7 -10 16 -10 8 0 12 5 9 10 -3 6 -10 10 -16 10 -5
0 -9 -4 -9 -10z"/>
<path d="M4370 7480 c-23 -14 1 -45 35 -45 34 0 58 31 35 45 -8 5 -24 10 -35
10 -11 0 -27 -5 -35 -10z"/>
<path d="M4282 7445 c-17 -14 -40 -25 -52 -25 -12 0 -35 -11 -52 -25 -16 -14
-42 -25 -58 -25 -41 0 -167 -76 -225 -136 -27 -28 -61 -57 -75 -64 -42 -22
-95 -75 -197 -196 -37 -44 -74 -89 -81 -100 -32 -48 -59 -95 -99 -173 -24 -47
-47 -89 -52 -95 -4 -6 -13 -24 -19 -41 -6 -16 -24 -63 -41 -104 -17 -40 -31
-86 -31 -102 0 -16 -11 -62 -25 -103 -14 -42 -25 -98 -25 -127 0 -34 -6 -59
-16 -70 -14 -15 -14 -21 -2 -46 31 -65 81 -11 98 106 5 33 19 81 33 108 13 27
32 73 42 103 39 122 191 399 268 489 15 18 27 37 27 43 0 21 256 270 302 294
26 13 50 28 53 34 14 22 152 107 211 128 110 42 154 82 104 95 -11 3 -24 17
-30 31 -12 32 -21 32 -58 1z"/>
<path d="M6712 7230 c0 -14 2 -19 5 -12 2 6 2 18 0 25 -3 6 -5 1 -5 -13z"/>
<path d="M4755 7040 c-16 -4 -52 -8 -78 -9 -109 -3 -364 -76 -467 -134 -197
-110 -381 -331 -367 -438 9 -67 23 -71 65 -19 63 77 165 180 228 231 99 78
312 179 379 179 25 0 12 -40 -31 -97 -46 -61 -79 -135 -110 -248 -45 -166 -25
-362 51 -516 48 -97 70 -126 116 -150 92 -47 409 -119 523 -119 71 0 157 22
177 46 17 21 141 80 200 95 106 28 152 -25 96 -108 -16 -24 -33 -43 -38 -43
-5 0 -9 -7 -9 -15 0 -63 205 96 284 220 88 137 125 315 106 506 -11 112 -9
129 15 129 14 0 145 -130 173 -173 10 -13 30 -44 46 -68 44 -65 93 -169 102
-213 7 -39 42 -86 64 -86 13 0 13 90 0 183 -23 154 -136 325 -315 473 -60 49
-203 142 -271 177 -149 76 -394 152 -564 176 -221 31 -315 36 -375 21z m198
-247 c48 -31 91 -116 81 -160 -10 -39 -47 -96 -81 -123 -24 -19 -38 -21 -95
-18 -58 3 -72 8 -99 33 -42 41 -59 76 -59 125 0 57 22 103 64 135 65 49 121
52 189 8z"/>
<path d="M3240 5933 c1 -36 1 -37 16 -18 17 22 15 46 -3 53 -9 2 -13 -8 -13
-35z"/>
<path d="M9686 6942 c-78 -11 -91 -61 -15 -62 14 0 29 -4 35 -8 5 -5 52 -24
104 -42 52 -18 117 -44 144 -58 42 -21 59 -24 113 -19 58 4 67 2 94 -20 16
-14 29 -31 29 -39 0 -8 12 -19 27 -25 15 -6 46 -26 69 -45 23 -19 50 -34 59
-34 26 0 143 -59 154 -77 5 -9 24 -24 42 -32 18 -9 40 -29 49 -46 10 -19 28
-32 50 -38 19 -5 44 -19 56 -32 12 -14 34 -27 48 -31 17 -4 29 -17 36 -39 7
-23 22 -38 46 -50 37 -17 54 -13 54 12 0 18 -112 133 -129 133 -17 0 -101 80
-101 96 0 21 -59 77 -110 106 -110 63 -205 108 -228 108 -16 0 -45 19 -82 53
-32 30 -77 64 -101 76 -24 12 -60 31 -79 41 -117 62 -150 72 -232 75 -46 2
-105 0 -132 -3z"/>
<path d="M10940 6095 c0 -20 62 -104 78 -104 22 -2 13 40 -19 80 -31 40 -59
51 -59 24z"/>
<path d="M1700 6521 c-20 -38 -4 -62 156 -231 96 -101 139 -156 149 -190 4
-14 22 -54 41 -90 39 -77 74 -163 74 -183 0 -8 7 -20 15 -27 13 -11 15 -3 15
61 0 173 -166 510 -312 632 -58 49 -120 61 -138 28z"/>
</g>
</svg>
